<?xml version="1.0" encoding="UTF-8"?>
<svg width="48" height="48" viewBox="0 0 48 48" xmlns="http://www.w3.org/2000/svg">
  <rect width="48" height="48" rx="24" fill="#FFFFFF"/>
  <path d="M32.5 19.5C32.5 17.015 30.485 15 28 15H19C18.172 15 17.5 15.672 17.5 16.5L15 33H21L22 28H26C28.485 28 30.5 25.985 30.5 23.5C30.5 22.672 30.328 21.5 30 21C31.5 20.5 32.5 19.5 32.5 19.5Z" fill="#002C8A"/>
  <path d="M30 21C31.5 20.5 32.5 19.5 32.5 19.5C32.5 17.015 30.485 15 28 15H19C18.172 15 17.5 15.672 17.5 16.5L15 33H21L22 28H26C28.485 28 30.5 25.985 30.5 23.5C30.5 22.672 30.328 21.5 30 21ZM26 25H22L23 20H27C27.828 20 28.5 20.672 28.5 21.5C28.5 23.433 27.433 25 26 25Z" fill="#009BE1"/>
</svg> 