<?xml version="1.0" encoding="UTF-8"?>
<svg width="48" height="48" viewBox="0 0 48 48" xmlns="http://www.w3.org/2000/svg">
  <rect width="48" height="48" rx="24" fill="#5F259F"/>
  <path d="M24 12C17.373 12 12 17.373 12 24C12 30.627 17.373 36 24 36C30.627 36 36 30.627 36 24C36 17.373 30.627 12 24 12ZM28.5 27.876C28.5 28.362 28.362 28.5 27.876 28.5H20.124C19.638 28.5 19.5 28.362 19.5 27.876V20.124C19.5 19.638 19.638 19.5 20.124 19.5H27.876C28.362 19.5 28.5 19.638 28.5 20.124V27.876Z" fill="white"/>
  <path d="M24 22.5C23.172 22.5 22.5 23.172 22.5 24C22.5 24.828 23.172 25.5 24 25.5C24.828 25.5 25.5 24.828 25.5 24C25.5 23.172 24.828 22.5 24 22.5Z" fill="white"/>
</svg> 