<?xml version="1.0" standalone="no"?>
<!DOCTYPE svg PUBLIC "-//W3C//DTD SVG 20010904//EN"
 "http://www.w3.org/TR/2001/REC-SVG-20010904/DTD/svg10.dtd">
<svg version="1.0" xmlns="http://www.w3.org/2000/svg"
 width="300.000000pt" height="237.000000pt" viewBox="0 0 300.000000 237.000000"
 preserveAspectRatio="xMidYMid meet">
<metadata>
Created by potrace 1.10, written by Peter Selinger 2001-2011
</metadata>
<g transform="translate(0.000000,237.000000) scale(0.100000,-0.100000)"
fill="#000000" stroke="none">
<path d="M727 1753 c-4 -3 -7 -44 -7 -90 0 -67 3 -85 16 -90 26 -10 39 15 39
73 l0 54 658 2 657 3 0 -515 0 -515 -303 3 c-263 2 -306 1 -317 -12 -7 -9 -10
-23 -6 -31 5 -13 58 -15 413 -15 l408 0 19 -45 c42 -105 175 -142 273 -78 39
26 73 94 73 147 0 117 -96 199 -213 182 -57 -9 -122 -63 -138 -114 l-11 -37
-69 0 -69 0 0 353 0 352 65 0 65 0 2 -167 3 -168 125 -3 c151 -3 172 1 168 31
-3 21 -8 22 -125 25 l-123 3 0 139 0 140 64 0 c62 0 64 -1 102 -42 20 -24 88
-96 151 -161 l113 -118 2 -217 3 -217 25 0 25 0 3 228 2 227 -167 175 -168
175 -167 0 -168 0 -2 163 -3 162 -706 3 c-388 1 -709 -1 -712 -5z m1803 -998
c43 -22 60 -53 60 -107 0 -40 -5 -54 -33 -84 -45 -50 -101 -57 -157 -20 -130
86 -9 283 130 211z"/>
<path d="M864 1594 c3 -9 6 -32 6 -52 0 -25 3 -33 9 -23 5 8 8 24 6 37 -1 13
4 25 13 29 20 7 1061 7 1073 -1 9 -5 12 -764 3 -789 -6 -14 -35 -16 -218 -15
-389 1 -432 0 -416 -10 9 -6 147 -10 338 -10 l322 0 0 425 0 425 -571 0 c-517
0 -571 -2 -565 -16z"/>
<path d="M500 1455 c-7 -8 -10 -22 -6 -30 5 -13 63 -15 483 -13 459 3 478 4
481 22 2 10 -2 22 -10 27 -7 5 -221 9 -474 9 -396 0 -463 -2 -474 -15z"/>
<path d="M870 1309 c0 -30 4 -49 8 -42 8 13 7 81 -2 90 -3 4 -6 -18 -6 -48z"/>
<path d="M190 1205 c-7 -8 -10 -22 -6 -30 5 -13 80 -15 638 -13 l633 3 0 25 0
25 -626 3 c-546 2 -628 0 -639 -13z"/>
<path d="M494 955 c-4 -8 -1 -22 6 -30 11 -13 78 -15 474 -15 253 0 467 4 474
9 8 5 12 17 10 27 -3 18 -22 19 -481 22 -420 2 -478 0 -483 -13z"/>
<path d="M870 839 c0 -19 -3 -44 -6 -56 -6 -21 -3 -23 27 -22 19 1 45 5 59 9
22 7 21 8 -12 9 -41 1 -47 6 -52 51 -5 44 -16 50 -16 9z"/>
<path d="M1086 820 c-39 -12 -85 -56 -106 -103 l-17 -38 -94 -1 -94 -1 -1 59
c-1 83 -1 84 -29 84 -25 0 -25 0 -25 -100 l0 -100 124 0 124 0 7 -30 c22 -102
162 -157 260 -102 58 33 88 82 93 150 3 50 0 63 -27 105 -47 73 -129 102 -215
77z m124 -65 c59 -30 80 -127 39 -179 -45 -57 -109 -70 -166 -35 -64 40 -80
110 -40 170 39 58 106 76 167 44z"/>
</g>
</svg>
