<?xml version="1.0" encoding="UTF-8"?>
<svg version="1.1" xmlns="http://www.w3.org/2000/svg" width="626" height="402">
<path d="M0 0 C206.58 0 413.16 0 626 0 C626 132.66 626 265.32 626 402 C419.42 402 212.84 402 0 402 C0 269.34 0 136.68 0 0 Z " fill="#FEFEFE" transform="translate(0,0)"/>
<path d="M0 0 C23.30459583 0 23.30459583 0 30.25 2.375 C31.46187988 2.76123535 31.46187988 2.76123535 32.69824219 3.15527344 C41.17635151 6.05891778 48.93075209 10.51047229 56 16 C56 16.66 56 17.32 56 18 C56.66 18 57.32 18 58 18 C58 18.66 58 19.32 58 20 C60.45734672 20.48476195 62.91559803 20.96335884 65.375 21.4375 C66.10654297 21.5809082 66.83808594 21.72431641 67.59179688 21.87207031 C71.59523036 22.63353538 75.41742652 23.12841866 79.5 23.25 C85.16783515 23.77131275 88.27289386 26.90441024 92 31 C94.2382697 34.33310571 95.99863734 37.82916333 97.75 41.4375 C98.24951172 42.4287085 98.74902344 43.41991699 99.26367188 44.44116211 C100.86036779 47.61885608 102.43145562 50.80832819 104 54 C105.63752317 57.29932752 107.27886802 60.59670931 108.92285156 63.89282227 C109.95172598 65.96060501 110.97479477 68.03128966 111.99121094 70.10522461 C113.89236206 73.95771253 115.74391589 77.62190479 118.15625 81.18359375 C120.04693692 84.07169813 121.07586989 86.73539054 122.21337891 89.96484375 C123.51906872 93.3429413 125.35509776 96.38539152 127.1875 99.5 C130.41510144 105.11070263 133.48717874 110.76912824 136.375 116.5625 C136.85682739 117.52542969 136.85682739 117.52542969 137.34838867 118.5078125 C138.84488335 121.53476821 140.23811912 124.56098238 141.55859375 127.671875 C143.11882578 131.27436195 144.99105666 134.5308699 147.01171875 137.88671875 C148 140 148 140 148 144 C148.66 144 149.32 144 150 144 C151.4606285 146.64738916 152 147.89448334 152 151 C153.32 151.33 154.64 151.66 156 152 C156 161.24 156 170.48 156 180 C154.02 180.66 152.04 181.32 150 182 C150.57452746 185.93075644 150.57452746 185.93075644 153 189 C153.21202418 191.6895974 153.30397614 194.27363723 153.30078125 196.96484375 C153.30506638 197.75395645 153.3093515 198.54306915 153.31376648 199.35609436 C153.31951363 201.02636759 153.32000721 202.69666586 153.31567383 204.36694336 C153.31251655 206.92409972 153.33595751 209.4800964 153.36132812 212.03710938 C153.36360134 213.6588527 153.36430451 215.28059915 153.36328125 216.90234375 C153.372491 217.66804184 153.38170074 218.43373993 153.39118958 219.22264099 C153.34554479 224.45533445 153.34554479 224.45533445 151.72729492 227.00610352 C150 228 150 228 146 228 C146 230.31 146 232.62 146 235 C131.15 235 116.3 235 101 235 C100.67 236.65 100.34 238.3 100 240 C95.52886136 251.01280458 90.26902308 258.04935177 79.390625 263 C70.35181621 266.78093962 60.06762159 267.85245052 50.6875 264.4375 C41.0154442 259.91116847 33.13388345 252.75364897 29.125 242.75 C28 239 28 239 28 235 C23.71 235 19.42 235 15 235 C15 226.42 15 217.84 15 209 C-20.31 209 -55.62 209 -92 209 C-92 211.64 -92 214.28 -92 217 C-89.03 217 -86.06 217 -83 217 C-83 226.57 -83 236.14 -83 246 C-110.06 246 -137.12 246 -165 246 C-165 236.43 -165 226.86 -165 217 C-163.02 217 -161.04 217 -159 217 C-159 214.36 -159 211.72 -159 209 C-172.2 209 -185.4 209 -199 209 C-197.35 213.95 -195.7 218.9 -194 224 C-193.65469276 227.28041879 -193.44356156 229.86855776 -193.625 233.0625 C-193.63917969 233.75537109 -193.65335937 234.44824219 -193.66796875 235.16210938 C-193.78371633 239.23256593 -194.32576047 242.95456284 -195 247 C-199.62 247 -204.24 247 -209 247 C-209.66 248.65 -210.32 250.3 -211 252 C-216.64320992 259.46770636 -224.80626151 264.2462811 -234 266 C-245.84249224 266.8911861 -254.73311401 264.51087194 -264 257 C-266.7353713 254.24742511 -269.2577 251.4846 -271 248 C-274.04581269 247.53045739 -274.04581269 247.53045739 -277.5625 247.375 C-278.76003906 247.30023438 -279.95757812 247.22546875 -281.19140625 247.1484375 C-282.58166016 247.07496094 -282.58166016 247.07496094 -284 247 C-286.34305724 235.17041835 -286.65854441 221.86018771 -281 211 C-280.56429687 210.14148438 -280.12859375 209.28296875 -279.6796875 208.3984375 C-275.5651015 200.95620817 -269.86035662 193.69899135 -262 190 C-261.34 190 -260.68 190 -260 190 C-260 189.34 -260 188.68 -260 188 C-279.14 188 -298.28 188 -318 188 C-318 132.56 -318 77.12 -318 20 C-217.02 20 -116.04 20 -12 20 C-12 75.44 -12 130.88 -12 188 C-80.64 188 -149.28 188 -220 188 C-220 188.66 -220 189.32 -220 190 C-218.6696875 190.3403125 -218.6696875 190.3403125 -217.3125 190.6875 C-214 192 -214 192 -211.8264513 194.54207897 C-208.12522688 197.76071477 -205.14497595 197.70179034 -200.46427917 197.63923645 C-199.60654461 197.64759213 -198.74881004 197.6559478 -197.86508352 197.66455668 C-194.9919175 197.68649816 -192.12002824 197.67287614 -189.24682617 197.65942383 C-187.18699167 197.66787586 -185.12716515 197.67851941 -183.06735229 197.69119263 C-177.47474043 197.71938057 -171.88251156 197.7168599 -166.28985 197.70889878 C-160.44547962 197.70577756 -154.60123205 197.73079685 -148.75691223 197.75285339 C-137.68956707 197.79033455 -126.62234479 197.80244381 -115.55494243 197.8054778 C-100.59979952 197.8110403 -85.64477705 197.85571413 -70.68970203 197.89821911 C-47.12643817 197.96415714 -23.56343947 197.97776843 0 198 C0 132.66 0 67.32 0 0 Z " fill="#FDCE81" transform="translate(396,92)"/>
<path d="M0 0 C23.30459583 0 23.30459583 0 30.25 2.375 C31.46187988 2.76123535 31.46187988 2.76123535 32.69824219 3.15527344 C41.17635151 6.05891778 48.93075209 10.51047229 56 16 C56 16.66 56 17.32 56 18 C56.66 18 57.32 18 58 18 C58 18.66 58 19.32 58 20 C60.45734672 20.48476195 62.91559803 20.96335884 65.375 21.4375 C66.10654297 21.5809082 66.83808594 21.72431641 67.59179688 21.87207031 C71.59523036 22.63353538 75.41742652 23.12841866 79.5 23.25 C85.16783515 23.77131275 88.27289386 26.90441024 92 31 C94.2382697 34.33310571 95.99863734 37.82916333 97.75 41.4375 C98.24951172 42.4287085 98.74902344 43.41991699 99.26367188 44.44116211 C100.86036779 47.61885608 102.43145562 50.80832819 104 54 C105.63752317 57.29932752 107.27886802 60.59670931 108.92285156 63.89282227 C109.95172598 65.96060501 110.97479477 68.03128966 111.99121094 70.10522461 C113.89236206 73.95771253 115.74391589 77.62190479 118.15625 81.18359375 C120.04693692 84.07169813 121.07586989 86.73539054 122.21337891 89.96484375 C123.51906872 93.3429413 125.35509776 96.38539152 127.1875 99.5 C130.41510144 105.11070263 133.48717874 110.76912824 136.375 116.5625 C136.85682739 117.52542969 136.85682739 117.52542969 137.34838867 118.5078125 C138.84488335 121.53476821 140.23811912 124.56098238 141.55859375 127.671875 C143.11882578 131.27436195 144.99105666 134.5308699 147.01171875 137.88671875 C148 140 148 140 148 144 C148.66 144 149.32 144 150 144 C151.4606285 146.64738916 152 147.89448334 152 151 C153.32 151.33 154.64 151.66 156 152 C156 161.24 156 170.48 156 180 C154.02 180.66 152.04 181.32 150 182 C150.57452746 185.93075644 150.57452746 185.93075644 153 189 C153.21202418 191.6895974 153.30397614 194.27363723 153.30078125 196.96484375 C153.30506638 197.75395645 153.3093515 198.54306915 153.31376648 199.35609436 C153.31951363 201.02636759 153.32000721 202.69666586 153.31567383 204.36694336 C153.31251655 206.92409972 153.33595751 209.4800964 153.36132812 212.03710938 C153.36360134 213.6588527 153.36430451 215.28059915 153.36328125 216.90234375 C153.372491 217.66804184 153.38170074 218.43373993 153.39118958 219.22264099 C153.34554479 224.45533445 153.34554479 224.45533445 151.72729492 227.00610352 C150 228 150 228 146 228 C146 230.31 146 232.62 146 235 C131.15 235 116.3 235 101 235 C100.67 236.65 100.34 238.3 100 240 C95.52886136 251.01280458 90.26902308 258.04935177 79.390625 263 C70.35181621 266.78093962 60.06762159 267.85245052 50.6875 264.4375 C41.0154442 259.91116847 33.13388345 252.75364897 29.125 242.75 C28 239 28 239 28 235 C23.71 235 19.42 235 15 235 C15 226.42 15 217.84 15 209 C-20.31 209 -55.62 209 -92 209 C-92 211.64 -92 214.28 -92 217 C-89.03 217 -86.06 217 -83 217 C-83 226.57 -83 236.14 -83 246 C-110.06 246 -137.12 246 -165 246 C-165 236.43 -165 226.86 -165 217 C-163.02 217 -161.04 217 -159 217 C-159 214.36 -159 211.72 -159 209 C-172.2 209 -185.4 209 -199 209 C-197.35 213.95 -195.7 218.9 -194 224 C-193.65469276 227.28041879 -193.44356156 229.86855776 -193.625 233.0625 C-193.63917969 233.75537109 -193.65335937 234.44824219 -193.66796875 235.16210938 C-193.78371633 239.23256593 -194.32576047 242.95456284 -195 247 C-199.62 247 -204.24 247 -209 247 C-209.66 248.65 -210.32 250.3 -211 252 C-216.64320992 259.46770636 -224.80626151 264.2462811 -234 266 C-245.84249224 266.8911861 -254.73311401 264.51087194 -264 257 C-266.7353713 254.24742511 -269.2577 251.4846 -271 248 C-274.04581269 247.53045739 -274.04581269 247.53045739 -277.5625 247.375 C-278.76003906 247.30023438 -279.95757812 247.22546875 -281.19140625 247.1484375 C-282.58166016 247.07496094 -282.58166016 247.07496094 -284 247 C-286.34305724 235.17041835 -286.65854441 221.86018771 -281 211 C-280.34644531 209.71222656 -280.34644531 209.71222656 -279.6796875 208.3984375 C-275.11451386 200.14121086 -268.86655144 192.74993374 -260 189 C-256.93991543 188.44307905 -253.95246865 188.41466911 -250.84765625 188.43359375 C-249.98869247 188.42739517 -249.1297287 188.42119659 -248.24473572 188.41481018 C-246.43701301 188.40774007 -244.6292248 188.41083672 -242.8215332 188.42358398 C-240.07314849 188.43744629 -237.32817581 188.40334435 -234.58007812 188.36523438 C-232.81510334 188.36428295 -231.05012435 188.36614326 -229.28515625 188.37109375 C-228.47345474 188.35783554 -227.66175323 188.34457733 -226.82545471 188.33091736 C-220.73823993 188.42902513 -216.75302502 190.22145179 -212 194 C-211.46102774 194.77238195 -211.46102774 194.77238195 -210.91116714 195.56036758 C-207.83732936 197.8758095 -204.40475897 197.42102271 -200.70478821 197.39872742 C-199.84876249 197.40537424 -198.99273677 197.41202107 -198.11077088 197.41886932 C-195.23168666 197.43757718 -192.35301517 197.43488881 -189.47387695 197.43237305 C-187.41434132 197.44138545 -185.35481108 197.45171138 -183.29528809 197.46325684 C-177.69439066 197.49091417 -172.09359476 197.5001232 -166.49263787 197.50611091 C-160.64293381 197.51547189 -154.79330627 197.54167337 -148.94364929 197.56611633 C-137.86210815 197.60984778 -126.7805818 197.63835391 -115.69898051 197.66143972 C-100.7275139 197.69350456 -85.75613547 197.74898763 -70.78473568 197.80318546 C-47.18984993 197.88798148 -23.59499902 197.94140148 0 198 C0 132.66 0 67.32 0 0 Z " fill="#ED7B51" transform="translate(396,92)"/>
<path d="M0 0 C13.2 0 26.4 0 40 0 C40 2.64 40 5.28 40 8 C38.02 8 36.04 8 34 8 C34 17.57 34 27.14 34 37 C61.06 37 88.12 37 116 37 C116 27.43 116 17.86 116 8 C113.03 8 110.06 8 107 8 C107 5.36 107 2.72 107 0 C142.31 0 177.62 0 214 0 C214 8.58 214 17.16 214 26 C218.29 26 222.58 26 227 26 C227.515625 27.794375 228.03125 29.58875 228.5625 31.4375 C232.29165504 42.44368675 238.71694861 48.71951415 249 54 C258.5598946 57.81629971 268.80863057 56.83519975 278.3046875 53.27734375 C282.34100646 51.36447955 285.61777117 48.88258139 289 46 C290.32770234 44.99253572 291.65964535 43.99056912 293 43 C292.67 43.99 292.34 44.98 292 46 C297.07079319 46.79960435 302.08531079 47.23559826 307.21484375 47.46484375 C308.80534588 47.54347157 310.39584043 47.62225275 311.98632812 47.70117188 C314.44724874 47.8195859 316.90822831 47.93615117 319.36938477 48.04956055 C348.14135594 49.3911079 348.14135594 49.3911079 358 53 C357.67 53.66 357.34 54.32 357 55 C353.93966999 55.6356641 350.96159253 56.12123815 347.8671875 56.5234375 C346.40513382 56.71647964 346.40513382 56.71647964 344.9135437 56.91342163 C332.04379743 58.49849403 319.10521319 59.00245915 306.15844727 59.53839111 C302.87463468 59.67825574 299.59171464 59.83704064 296.30859375 59.9921875 C240.19452869 62.56834577 183.97168194 62.18849646 127.81378055 62.18511152 C120.47406356 62.18541275 113.1343838 62.19354561 105.79467773 62.20581055 C62.52542587 62.27636505 19.27201397 62.18204915 -23.98741174 61.17262864 C-26.64487856 61.11073166 -29.30238087 61.05057831 -31.95989037 60.99054527 C-57.44101658 60.40545736 -82.81635333 59.19255879 -108.22265625 57.09765625 C-109.06474262 57.03277386 -109.90682899 56.96789146 -110.77443314 56.90104294 C-114.99632361 56.4962547 -117.9167329 56.04073928 -121 53 C-117.28896158 50.70817007 -113.43578534 50.35936726 -109.1875 49.9375 C-108.39303467 49.85516113 -107.59856934 49.77282227 -106.7800293 49.68798828 C-93.57359757 48.45053619 -80.25412399 48.31287923 -67 48 C-66.505 47.01 -66.505 47.01 -66 46 C-65.49210937 46.39832031 -64.98421875 46.79664063 -64.4609375 47.20703125 C-54.98116689 54.50325919 -46.99487609 57.06783653 -35 56 C-24.59207987 53.39801997 -17.56857686 48.36000691 -11 40 C-10.505 39.01 -10.505 39.01 -10 38 C-5.38 38 -0.76 38 4 38 C4.8645304 21.2024722 4.8645304 21.2024722 0.875 5.109375 C0 3 0 3 0 0 Z " fill="#FDFCFC" transform="translate(197,301)"/>
<path d="M0 0 C0 0.66 0 1.32 0 2 C0.804375 2.04125 1.60875 2.0825 2.4375 2.125 C11.36674823 4.31814869 18.94126131 11.3713995 23.91796875 18.90234375 C30.78322663 30.353877 32.14857426 39.77689046 32 53 C28.04 53 24.08 53 20 53 C19.67 54.65 19.34 56.3 19 58 C14.52886136 69.01280458 9.26902308 76.04935177 -1.609375 81 C-10.64818379 84.78093962 -20.93237841 85.85245052 -30.3125 82.4375 C-39.5486837 78.11514802 -47.46145967 71.42938719 -51.25390625 61.82421875 C-52.24064134 58.89839448 -53.15836805 55.97046571 -54 53 C-57.63 52.67 -61.26 52.34 -65 52 C-65.83944162 37.46833277 -63.47218108 26.33527373 -54.29296875 14.50390625 C-39.61862471 -1.52037745 -20.43035419 -4.58557048 0 0 Z " fill="#3F4157" transform="translate(477,274)"/>
<path d="M0 0 C1.14799072 -0.01260864 2.29598145 -0.02521729 3.47875977 -0.03820801 C4.71424561 -0.03011108 5.94973145 -0.02201416 7.22265625 -0.01367188 C8.49488037 -0.01749878 9.76710449 -0.02132568 11.07788086 -0.02526855 C13.76829452 -0.02799114 16.45725496 -0.02262001 19.14746094 -0.00390625 C22.5911037 0.01888451 26.03349952 0.00575844 29.47709656 -0.01819611 C32.76732753 -0.0361474 36.057409 -0.02356908 39.34765625 -0.01367188 C40.58314209 -0.0217688 41.81862793 -0.02986572 43.09155273 -0.03820801 C44.81353882 -0.01929504 44.81353882 -0.01929504 46.5703125 0 C47.579729 0.00318237 48.58914551 0.00636475 49.62915039 0.00964355 C53.01540873 0.65723161 54.1676898 1.84663857 56.28515625 4.51757812 C57.53515625 7.76757812 57.53515625 7.76757812 58.28515625 10.51757812 C58.94515625 10.51757812 59.60515625 10.51757812 60.28515625 10.51757812 C60.28515625 12.49757812 60.28515625 14.47757813 60.28515625 16.51757812 C60.94515625 16.51757812 61.60515625 16.51757812 62.28515625 16.51757812 C63.29500355 18.4290748 64.2927012 20.34699382 65.28515625 22.26757812 C65.84203125 23.33492187 66.39890625 24.40226562 66.97265625 25.50195312 C68.28515625 28.51757812 68.28515625 28.51757812 68.28515625 32.51757812 C68.94515625 32.51757812 69.60515625 32.51757812 70.28515625 32.51757812 C70.28515625 33.83757812 70.28515625 35.15757812 70.28515625 36.51757812 C70.94515625 36.51757812 71.60515625 36.51757812 72.28515625 36.51757812 C72.28515625 37.83757812 72.28515625 39.15757812 72.28515625 40.51757812 C72.94515625 40.51757812 73.60515625 40.51757812 74.28515625 40.51757812 C74.95602745 42.14084683 75.62172654 43.76625391 76.28515625 45.39257812 C76.65640625 46.2975 77.02765625 47.20242187 77.41015625 48.13476562 C78.28515625 50.51757812 78.28515625 50.51757812 78.28515625 52.51757812 C78.94515625 52.51757812 79.60515625 52.51757812 80.28515625 52.51757812 C86.02547516 65.00277175 86.02547516 65.00277175 85.28515625 71.51757812 C83.80015625 72.01257813 83.80015625 72.01257813 82.28515625 72.51757812 C82.28515625 73.17757812 82.28515625 73.83757812 82.28515625 74.51757812 C70.88053395 74.61020983 59.47600097 74.68130852 48.07107925 74.72482681 C42.77544122 74.74571221 37.48006034 74.77404744 32.18457031 74.81933594 C27.0752484 74.86275941 21.96617401 74.88670806 16.85668182 74.8970871 C14.90618746 74.90448474 12.95570683 74.91893045 11.00531769 74.94049835 C8.27570697 74.96948585 5.54712238 74.97353609 2.81738281 74.97167969 C2.00889893 74.98606079 1.20041504 75.00044189 0.36743164 75.01525879 C-3.06733659 74.98993972 -5.30520377 74.78379662 -8.21575928 72.89227295 C-10.17791174 69.78403363 -10.22228165 67.73758133 -10.23242188 64.06835938 C-10.24503052 62.76020264 -10.25763916 61.4520459 -10.27062988 60.10424805 C-10.26347008 58.67951925 -10.25526609 57.25479538 -10.24609375 55.83007812 C-10.24878924 54.36563865 -10.25267213 52.90120093 -10.25769043 51.43676758 C-10.26358294 48.37010632 -10.25503121 45.30391164 -10.23632812 42.23730469 C-10.21353785 38.30944176 -10.22666238 34.38267207 -10.25061798 30.45484924 C-10.26508316 27.43159776 -10.26046686 24.4086048 -10.25010681 21.38534546 C-10.24744147 19.93728506 -10.25070257 18.48920106 -10.26002502 17.04116821 C-10.27020034 15.01638243 -10.25193707 12.99151418 -10.23242188 10.96679688 C-10.2292395 9.81526123 -10.22605713 8.66372559 -10.22277832 7.47729492 C-9.71484375 4.51757812 -9.71484375 4.51757812 -8.03967285 2.14685059 C-5.14691759 0.1195676 -3.51515988 0.01108219 0 0 Z " fill="#3F4259" transform="translate(423.71484375,131.482421875)"/>
<path d="M0 0 C0 0.99 0 1.98 0 3 C1.26982947 2.99354745 2.53965895 2.9870949 3.8479681 2.98044682 C34.00578725 2.82877115 64.16350786 2.71338131 94.32161507 2.64254269 C98.03529287 2.63378797 101.74896988 2.6247277 105.46264648 2.61547852 C106.20195815 2.61364234 106.94126982 2.61180617 107.70298488 2.60991435 C119.66657054 2.57947298 131.62992024 2.524291 143.59336602 2.45993043 C155.87323951 2.39441958 168.1529896 2.355578 180.43303066 2.34138054 C188.00778495 2.33178586 195.58187222 2.30150735 203.15642113 2.24458473 C208.9692074 2.20313267 214.78156833 2.19882626 220.59447289 2.20824623 C222.97570651 2.20632188 225.35696559 2.19241628 227.73804855 2.16556168 C230.99384509 2.13064571 234.24680588 2.13913466 237.50267029 2.15821838 C238.44140989 2.13782849 239.3801495 2.1174386 240.34733576 2.09643084 C246.77837396 2.19807679 250.159467 3.98185617 254.94253308 8.26030678 C261.50531455 13.80947324 269.12846519 14.65477831 277.46875 14.3828125 C286.81303252 13.36982612 293.91760276 10.03613401 301 4 C302.32770234 2.99253572 303.65964535 1.99056912 305 1 C304.67 1.99 304.34 2.98 304 4 C309.07079319 4.79960435 314.08531079 5.23559826 319.21484375 5.46484375 C320.80534588 5.54347157 322.39584043 5.62225275 323.98632812 5.70117188 C326.44724874 5.8195859 328.90822831 5.93615117 331.36938477 6.04956055 C360.14135594 7.3911079 360.14135594 7.3911079 370 11 C369.67 11.66 369.34 12.32 369 13 C365.93966999 13.6356641 362.96159253 14.12123815 359.8671875 14.5234375 C358.89248505 14.65213226 357.91778259 14.78082703 356.9135437 14.91342163 C344.04379743 16.49849403 331.10521319 17.00245915 318.15844727 17.53839111 C314.87463468 17.67825574 311.59171464 17.83704064 308.30859375 17.9921875 C252.19452869 20.56834577 195.97168194 20.18849646 139.81378055 20.18511152 C132.47406356 20.18541275 125.1343838 20.19354561 117.79467773 20.20581055 C74.52542587 20.27636505 31.27201397 20.18204915 -11.98741174 19.17262864 C-14.64487856 19.11073166 -17.30238087 19.05057831 -19.95989037 18.99054527 C-45.44101658 18.40545736 -70.81635333 17.19255879 -96.22265625 15.09765625 C-97.06474262 15.03277386 -97.90682899 14.96789146 -98.77443314 14.90104294 C-102.99632361 14.4962547 -105.9167329 14.04073928 -109 11 C-105.28896158 8.70817007 -101.43578534 8.35936726 -97.1875 7.9375 C-96.39303467 7.85516113 -95.59856934 7.77282227 -94.7800293 7.68798828 C-81.57359757 6.45053619 -68.25412399 6.31287923 -55 6 C-54.67 5.34 -54.34 4.68 -54 4 C-53.49210937 4.39832031 -52.98421875 4.79664063 -52.4609375 5.20703125 C-42.98116689 12.50325919 -34.99487609 15.06783653 -23 14 C-13.46227212 11.61556803 -6.70691223 7.02628901 0 0 Z " fill="#D8D8DC" transform="translate(185,343)"/>
<path d="M0 0 C0.85896378 -0.00619858 1.71792755 -0.01239716 2.60292053 -0.01878357 C4.41064324 -0.02585368 6.21843145 -0.02275703 8.02612305 -0.01000977 C10.77450776 0.00385254 13.51948044 -0.0302494 16.26757812 -0.06835938 C18.03255291 -0.0693108 19.7975319 -0.06745049 21.5625 -0.0625 C22.37420151 -0.07575821 23.18590302 -0.08901642 24.02220154 -0.10267639 C30.19510239 -0.00318762 33.93434013 1.93697083 38.84765625 5.56640625 C40.11609375 6.40171875 40.11609375 6.40171875 41.41015625 7.25390625 C47.98361465 13.49026422 51.95812019 21.07582636 54.84765625 29.56640625 C55.20859375 30.4790625 55.56953125 31.39171875 55.94140625 32.33203125 C57.06431941 36.33966958 57.10421064 39.93041188 57.03515625 44.06640625 C57.03418945 45.16662109 57.03418945 45.16662109 57.03320312 46.2890625 C56.99860205 50.58728531 56.56909121 54.23779651 55.84765625 58.56640625 C51.22765625 58.56640625 46.60765625 58.56640625 41.84765625 58.56640625 C41.18765625 60.21640625 40.52765625 61.86640625 39.84765625 63.56640625 C34.20444633 71.03411261 26.04139474 75.81268735 16.84765625 77.56640625 C5.00516401 78.45759235 -3.88545776 76.07727819 -13.15234375 68.56640625 C-15.88771505 65.81383136 -18.41004375 63.05100625 -20.15234375 59.56640625 C-23.19815644 59.09686364 -23.19815644 59.09686364 -26.71484375 58.94140625 C-27.91238281 58.86664063 -29.10992187 58.791875 -30.34375 58.71484375 C-31.27058594 58.66585937 -32.19742188 58.616875 -33.15234375 58.56640625 C-35.49540099 46.7368246 -35.81088816 33.42659396 -30.15234375 22.56640625 C-29.49878906 21.27863281 -29.49878906 21.27863281 -28.83203125 19.96484375 C-22.36974444 8.27622662 -13.73480294 -0.08371719 0 0 Z " fill="#3E4157" transform="translate(145.15234375,280.43359375)"/>
<path d="M0 0 C100.98 0 201.96 0 306 0 C306 5.28 306 10.56 306 16 C205.02 16 104.04 16 0 16 C0 10.72 0 5.44 0 0 Z " fill="#FEE9CA" transform="translate(78,96)"/>
<path d="M0 0 C1.14799072 -0.01260864 2.29598145 -0.02521729 3.47875977 -0.03820801 C4.71424561 -0.03011108 5.94973145 -0.02201416 7.22265625 -0.01367188 C8.49488037 -0.01749878 9.76710449 -0.02132568 11.07788086 -0.02526855 C13.76829452 -0.02799114 16.45725496 -0.02262001 19.14746094 -0.00390625 C22.5911037 0.01888451 26.03349952 0.00575844 29.47709656 -0.01819611 C32.76732753 -0.0361474 36.057409 -0.02356908 39.34765625 -0.01367188 C40.58314209 -0.0217688 41.81862793 -0.02986572 43.09155273 -0.03820801 C44.81353882 -0.01929504 44.81353882 -0.01929504 46.5703125 0 C47.579729 0.00318237 48.58914551 0.00636475 49.62915039 0.00964355 C52.98985089 0.65234393 54.13942648 1.91430528 56.28515625 4.51757812 C57.7564391 6.75953295 58.39812161 7.79984886 57.9782753 10.46735668 C56.8259433 13.87591365 54.14818327 16.09641529 51.65136719 18.5871582 C51.06428482 19.18431641 50.47720245 19.78147461 49.87232971 20.39672852 C47.92933408 22.36822195 45.97521171 24.3282035 44.01953125 26.28710938 C42.66507849 27.6511997 41.31085383 29.01551656 39.95684814 30.38005066 C37.11735972 33.23750346 34.2717354 36.08868386 31.42236328 38.9362793 C27.76726982 42.5910674 24.13326967 46.26607782 20.50423813 49.94672108 C17.71438256 52.76987924 14.91105192 55.57935016 12.10370636 58.38510704 C10.75762709 59.7347333 9.41642571 61.08924255 8.08019257 62.44861794 C6.21285669 64.34525045 4.32758602 66.22203609 2.43652344 68.0949707 C1.88567581 68.66267685 1.33482819 69.230383 0.76728821 69.81529236 C-0.80450439 71.34895325 -0.80450439 71.34895325 -3.71484375 73.51757812 C-6.5368042 73.48149109 -6.5368042 73.48149109 -8.71484375 72.51757812 C-10.10941104 69.72844354 -9.86527161 67.41592942 -9.8918457 64.29541016 C-9.90468094 62.98710236 -9.91751617 61.67879456 -9.93074036 60.33084106 C-9.93890702 58.89569476 -9.94635089 57.46054418 -9.953125 56.02539062 C-9.95720053 55.30406826 -9.96127605 54.5827459 -9.96547508 53.83956528 C-9.98633392 50.02244096 -10.00063697 46.20535258 -10.01000977 42.38818359 C-10.02108014 38.4446927 -10.05548695 34.50176518 -10.09518147 30.55847359 C-10.1213183 27.52671251 -10.12969888 24.49508634 -10.13329124 21.4632225 C-10.13816407 20.0095425 -10.14979802 18.55586879 -10.16832924 17.10229874 C-10.19265578 15.06784889 -10.18934228 13.0331254 -10.18481445 10.99853516 C-10.19068069 9.8409671 -10.19654694 8.68339905 -10.20259094 7.49075317 C-9.71484375 4.51757812 -9.71484375 4.51757812 -8.04264832 2.14486694 C-5.14800526 0.12132066 -3.5147013 0.01108075 0 0 Z " fill="#3E4259" transform="translate(423.71484375,131.482421875)"/>
<path d="M0 0 C1.32 0 2.64 0 4 0 C4 2.64 4 5.28 4 8 C23.14 8 42.28 8 62 8 C62 5.36 62 2.72 62 0 C63.65 0 65.3 0 67 0 C67 2.64 67 5.28 67 8 C69.97 8 72.94 8 76 8 C76 17.57 76 27.14 76 37 C48.94 37 21.88 37 -6 37 C-6 27.43 -6 17.86 -6 8 C-4.02 8 -2.04 8 0 8 C0 5.36 0 2.72 0 0 Z " fill="#3E4257" transform="translate(237,301)"/>
<path d="M0 0 C0 0.66 0 1.32 0 2 C0.804375 2.04125 1.60875 2.0825 2.4375 2.125 C11.36674823 4.31814869 18.94126131 11.3713995 23.91796875 18.90234375 C30.56582263 29.99123815 32.1581916 39.18648008 32 52 C28.04 52 24.08 52 20 52 C20.0825 50.246875 20.165 48.49375 20.25 46.6875 C20.23842474 36.87168198 16.86635658 29.65885443 11 22 C11 21.34 11 20.68 11 20 C10.484375 19.7525 9.96875 19.505 9.4375 19.25 C5.31692484 17.13688453 1.30403135 14.85875236 -2.5625 12.3125 C-9.82828556 8.40015393 -20.39306791 9.05783392 -28.1875 11.125 C-38.08390445 14.52440699 -45.50982118 20.94234328 -50.3125 30.1875 C-52.72042617 35.17607279 -53.20436162 39.72443636 -53.5625 45.25 C-53.64628906 46.51328125 -53.73007812 47.7765625 -53.81640625 49.078125 C-53.87699219 50.04234375 -53.93757813 51.0065625 -54 52 C-57.63 52 -61.26 52 -65 52 C-65.83944162 37.46833277 -63.47218108 26.33527373 -54.29296875 14.50390625 C-39.61862471 -1.52037745 -20.43035419 -4.58557048 0 0 Z " fill="#060403" transform="translate(477,274)"/>
<path d="M0 0 C0.495 1.98 0.495 1.98 1 4 C1.66 4 2.32 4 3 4 C3 5.32 3 6.64 3 8 C3.66 8 4.32 8 5 8 C5 9.32 5 10.64 5 12 C5.66 12 6.32 12 7 12 C7.6708712 13.6232687 8.33657029 15.24867578 9 16.875 C9.37125 17.77992188 9.7425 18.68484375 10.125 19.6171875 C11 22 11 22 11 24 C11.66 24 12.32 24 13 24 C18.74031891 36.48519362 18.74031891 36.48519362 18 43 C17.01 43.33 16.02 43.66 15 44 C15 44.66 15 45.32 15 46 C-4.47 46 -23.94 46 -44 46 C-37.25163445 38.12690686 -37.25163445 38.12690686 -33.93823242 34.84057617 C-33.20114548 34.10679245 -32.46405853 33.37300873 -31.70463562 32.61698914 C-30.92941055 31.85006241 -30.15418549 31.08313568 -29.35546875 30.29296875 C-28.13988029 29.08306023 -28.13988029 29.08306023 -26.8997345 27.84870911 C-24.33140921 25.29252508 -21.75986053 22.7396228 -19.1875 20.1875 C-15.78231541 16.8088321 -12.3804014 13.42692062 -8.98046875 10.04296875 C-8.19512253 9.26592087 -7.40977631 8.48887299 -6.60063171 7.6882782 C-5.5186425 6.61124382 -5.5186425 6.61124382 -4.41479492 5.51245117 C-3.45932014 4.56483162 -3.45932014 4.56483162 -2.48454285 3.59806824 C-0.90893176 2.05211303 -0.90893176 2.05211303 0 0 Z " fill="#787B8F" transform="translate(491,160)"/>
<path d="M0 0 C0.85896378 -0.00619858 1.71792755 -0.01239716 2.60292053 -0.01878357 C4.41064324 -0.02585368 6.21843145 -0.02275703 8.02612305 -0.01000977 C10.77450776 0.00385254 13.51948044 -0.0302494 16.26757812 -0.06835938 C18.03255291 -0.0693108 19.7975319 -0.06745049 21.5625 -0.0625 C22.37420151 -0.07575821 23.18590302 -0.08901642 24.02220154 -0.10267639 C30.19510239 -0.00318762 33.93434013 1.93697083 38.84765625 5.56640625 C40.11609375 6.40171875 40.11609375 6.40171875 41.41015625 7.25390625 C47.98361465 13.49026422 51.95812019 21.07582636 54.84765625 29.56640625 C55.20730469 30.47777344 55.56695312 31.38914062 55.9375 32.328125 C57.06784842 36.34983677 57.14118267 39.97576066 57.09765625 44.12890625 C57.10925781 45.24168945 57.10925781 45.24168945 57.12109375 46.37695312 C57.11851562 47.10076172 57.1159375 47.82457031 57.11328125 48.5703125 C57.11102539 49.21814697 57.10876953 49.86598145 57.10644531 50.53344727 C56.84765625 52.56640625 56.84765625 52.56640625 54.84765625 57.56640625 C50.88765625 57.56640625 46.92765625 57.56640625 42.84765625 57.56640625 C43.34265625 56.51453125 43.83765625 55.46265625 44.34765625 54.37890625 C47.69108548 45.38348952 46.54141938 35.2699291 42.84765625 26.56640625 C39.69897898 19.77514154 35.05317216 15.63137936 28.84765625 11.56640625 C28.20441406 11.12941406 27.56117188 10.69242187 26.8984375 10.2421875 C19.54159896 6.12293606 9.99869439 6.33574849 1.84765625 7.56640625 C-2.60042044 9.01071163 -6.28856427 10.95102079 -10.15234375 13.56640625 C-10.77496094 13.97246094 -11.39757812 14.37851562 -12.0390625 14.796875 C-19.04357655 19.96645338 -22.56245611 28.24722675 -24.15234375 36.56640625 C-24.94856421 44.19048979 -23.65593659 50.36857683 -21.15234375 57.56640625 C-25.11234375 57.56640625 -29.07234375 57.56640625 -33.15234375 57.56640625 C-35.47161833 45.97003333 -35.71044638 33.23382062 -30.15234375 22.56640625 C-29.49878906 21.27863281 -29.49878906 21.27863281 -28.83203125 19.96484375 C-22.36974444 8.27622662 -13.73480294 -0.08371719 0 0 Z " fill="#040305" transform="translate(145.15234375,280.43359375)"/>
<path d="M0 0 C4.97374215 2.87417067 8.40733379 7.06809571 10.625 12.375 C11.59701249 18.96422152 11.05967067 24.20863746 7.125 29.65234375 C3.48928964 33.82772987 -0.07743364 37.1019531 -5.828125 37.578125 C-11.70609376 37.67663844 -16.21351216 37.51237496 -21.375 34.375 C-26.4555914 29.39809414 -28.55650173 26.0037241 -28.8125 18.8125 C-28.75438424 11.72964211 -27.3657014 7.42115364 -22.375 2.375 C-16.26468945 -3.20331834 -7.34129807 -3.30289025 0 0 Z " fill="#FAFBFB" transform="translate(469.375,302.625)"/>
<path d="M0 0 C5.06432934 1.81566791 9.0127214 5.04325154 11.3671875 9.921875 C12.9958469 15.27031204 13.12136206 20.44237284 10.859375 25.6015625 C8.01070405 30.20441503 5.35847006 33.5115361 0 35 C-5.63667808 35.60559351 -10.33155307 35.80442977 -15.5 33.3125 C-19.55336043 29.5631416 -23.44101321 25.51641688 -24.3359375 19.88671875 C-24.43563526 14.27373493 -23.5882486 10.39779249 -20 6 C-13.74586238 -0.15841102 -8.61391425 -0.93911095 0 0 Z " fill="#F9FBF9" transform="translate(162,305)"/>
<path d="M0 0 C23.27697495 0 23.27697495 0 30.375 2.4375 C31.18807617 2.69611816 32.00115234 2.95473633 32.83886719 3.22119141 C40.69948662 5.8986279 47.3742907 10.06362718 54 15 C53.34 15.99 52.68 16.98 52 18 C49.34765625 18.51171875 49.34765625 18.51171875 46.0625 18.6875 C44.47115234 18.78611328 44.47115234 18.78611328 42.84765625 18.88671875 C34.02882069 19.14635959 25.40795958 18.9165671 16.625 18.0625 C15.66722656 17.97548828 14.70945312 17.88847656 13.72265625 17.79882812 C9.38615862 17.39171604 5.28619702 16.8572394 1 16 C1 73.42 1 130.84 1 190 C0.67 190 0.34 190 0 190 C0 127.3 0 64.6 0 0 Z " fill="#EB7649" transform="translate(396,92)"/>
<path d="M0 0 C0.66 0 1.32 0 2 0 C2 51.81 2 103.62 2 157 C-88.42 157 -178.84 157 -272 157 C-272 156.34 -272 155.68 -272 155 C-182.24 155 -92.48 155 0 155 C0 103.85 0 52.7 0 0 Z " fill="#E79B58" transform="translate(369,112)"/>
<path d="M0 0 C14 0 14 0 20 1 C20 1.66 20 2.32 20 3 C20.66 3 21.32 3 22 3 C22 3.66 22 4.32 22 5 C22.66 5 23.32 5 24 5 C24 5.66 24 6.32 24 7 C24.66 7 25.32 7 26 7 C28.65540367 11.57319521 28.42191689 15.83963188 28 21 C27 24.625 27 24.625 26 27 C25.34 27 24.68 27 24 27 C24 27.66 24 28.32 24 29 C23.34 29 22.68 29 22 29 C22 29.66 22 30.32 22 31 C13.94412124 34.8668218 10.09784147 34 0 34 C0 22.78 0 11.56 0 0 Z " fill="#FAFBF6" transform="translate(132,181)"/>
<path d="M0 0 C0.99 0.33 1.98 0.66 3 1 C3.73046875 2.84765625 3.73046875 2.84765625 4.1875 5.0625 C4.34605469 5.79597656 4.50460937 6.52945313 4.66796875 7.28515625 C4.77753906 7.85105469 4.88710938 8.41695312 5 9 C5.66 9 6.32 9 7 9 C12.74031891 21.48519362 12.74031891 21.48519362 12 28 C11.01 28.33 10.02 28.66 9 29 C9 29.66 9 30.32 9 31 C-3.87 31 -16.74 31 -30 31 C-26.34632531 26.73737952 -22.87360683 22.75102017 -18.92578125 18.828125 C-18.01119141 17.91675781 -17.09660156 17.00539062 -16.15429688 16.06640625 C-15.20709328 15.12754158 -14.25982709 14.18874006 -13.3125 13.25 C-12.35328042 12.2958093 -11.39429442 11.34138374 -10.43554688 10.38671875 C-8.68254423 8.64240047 -6.92851259 6.89911522 -5.1730957 5.15722656 C-3.44503167 3.4417818 -1.72019628 1.72332581 0 0 Z " fill="#3F4459" transform="translate(497,175)"/>
<path d="M0 0 C1.25167969 0.00257813 2.50335938 0.00515625 3.79296875 0.0078125 C5.03691406 0.00523437 6.28085937 0.00265625 7.5625 0 C10.26832877 0.10514077 12.4238123 0.32137998 14.98046875 1.1328125 C14.98046875 1.7928125 14.98046875 2.4528125 14.98046875 3.1328125 C15.64046875 3.1328125 16.30046875 3.1328125 16.98046875 3.1328125 C16.98046875 3.7928125 16.98046875 4.4528125 16.98046875 5.1328125 C17.64046875 5.1328125 18.30046875 5.1328125 18.98046875 5.1328125 C18.98046875 8.4328125 18.98046875 11.7328125 18.98046875 15.1328125 C18.32046875 15.1328125 17.66046875 15.1328125 16.98046875 15.1328125 C16.98046875 15.7928125 16.98046875 16.4528125 16.98046875 17.1328125 C15.66046875 17.1328125 14.34046875 17.1328125 12.98046875 17.1328125 C12.98046875 17.7928125 12.98046875 18.4528125 12.98046875 19.1328125 C13.64046875 19.1328125 14.30046875 19.1328125 14.98046875 19.1328125 C14.98046875 19.7928125 14.98046875 20.4528125 14.98046875 21.1328125 C15.64046875 21.1328125 16.30046875 21.1328125 16.98046875 21.1328125 C16.98046875 22.4528125 16.98046875 23.7728125 16.98046875 25.1328125 C17.64046875 25.1328125 18.30046875 25.1328125 18.98046875 25.1328125 C19.64046875 28.1028125 20.30046875 31.0728125 20.98046875 34.1328125 C18.67046875 34.1328125 16.36046875 34.1328125 13.98046875 34.1328125 C13.14256086 32.34328065 12.31027479 30.55111555 11.48046875 28.7578125 C11.01640625 27.76007813 10.55234375 26.76234375 10.07421875 25.734375 C8.98046875 23.1328125 8.98046875 23.1328125 8.98046875 21.1328125 C7.00046875 20.8028125 5.02046875 20.4728125 2.98046875 20.1328125 C2.98046875 24.7528125 2.98046875 29.3728125 2.98046875 34.1328125 C0.67046875 34.1328125 -1.63953125 34.1328125 -4.01953125 34.1328125 C-4.04418413 29.45141996 -4.06236864 24.77006491 -4.07446289 20.08862305 C-4.07950282 18.49486636 -4.08633475 16.90111431 -4.0949707 15.30737305 C-4.10705124 13.02130997 -4.1127628 10.73530783 -4.1171875 8.44921875 C-4.12234879 7.73254532 -4.12751007 7.01587189 -4.13282776 6.27748108 C-4.13302388 4.56217578 -4.08145132 2.84699984 -4.01953125 1.1328125 C-3.01953125 0.1328125 -3.01953125 0.1328125 0 0 Z " fill="#FCFAF4" transform="translate(289.01953125,180.8671875)"/>
<path d="M0 0 C1.94326172 0.01933594 1.94326172 0.01933594 3.92578125 0.0390625 C5.28907324 0.07248134 6.65235449 0.10634109 8.015625 0.140625 C9.39450564 0.16069793 10.77341412 0.17894733 12.15234375 0.1953125 C15.52414244 0.24247052 18.89453187 0.30827962 22.265625 0.390625 C18.37014407 5.04896619 14.32863594 9.47671274 10.02734375 13.76171875 C9.46110794 14.32891129 8.89487213 14.89610382 8.31147766 15.48048401 C7.12871921 16.66391673 5.94472212 17.84611273 4.75952148 19.02709961 C2.93680411 20.84439736 1.11956691 22.66705525 -0.69726562 24.49023438 C-1.85124147 25.64355047 -3.0055269 26.79655691 -4.16015625 27.94921875 C-4.7048909 28.49597763 -5.24962555 29.04273651 -5.81086731 29.60606384 C-9.61938599 33.390625 -9.61938599 33.390625 -10.734375 33.390625 C-10.8334664 29.33397553 -10.90594606 25.2777973 -10.95410156 21.22021484 C-10.97418142 19.8408582 -11.00145166 18.46158631 -11.03613281 17.08251953 C-11.08480317 15.09705521 -11.10523918 13.11096246 -11.125 11.125 C-11.14594727 9.93100586 -11.16689453 8.73701172 -11.18847656 7.50683594 C-10.734375 4.390625 -10.734375 4.390625 -9.13085938 1.99414062 C-5.92802412 -0.14891377 -3.83556264 -0.06729057 0 0 Z " fill="#3C445C" transform="translate(424.734375,131.609375)"/>
<path d="M0 0 C0 1.98 0 3.96 0 6 C0.99 6.495 0.99 6.495 2 7 C1.34257812 7.54914063 1.34257812 7.54914063 0.671875 8.109375 C-4.48525924 12.51180666 -9.26396578 17.20393889 -13.96191406 22.08691406 C-15.27182361 23.42754461 -16.63220501 24.71848131 -18 26 C-18.66 26 -19.32 26 -20 26 C-20.2475 26.5775 -20.495 27.155 -20.75 27.75 C-22.18299988 30.32939979 -23.78424676 32.06121592 -26 34 C-26.66 34 -27.32 34 -28 34 C-28.2475 34.5775 -28.495 35.155 -28.75 35.75 C-30.18299988 38.32939979 -31.78424676 40.06121592 -34 42 C-34.66 42 -35.32 42 -36 42 C-36.25201172 42.57073242 -36.50402344 43.14146484 -36.76367188 43.72949219 C-39.19294749 48.19083959 -42.99441316 51.61961881 -46.5 55.25 C-47.26570313 56.09046875 -48.03140625 56.9309375 -48.8203125 57.796875 C-54.57532413 63.72511441 -54.57532413 63.72511441 -58.82421875 64.54492188 C-61.28254604 64.54665553 -63.57728062 64.40208462 -66 64 C-65.29775803 63.29841263 -64.59551605 62.59682526 -63.87199402 61.87397766 C-60.9250818 58.92700893 -57.98632115 55.97198318 -55.0480957 53.01635742 C-49.24137739 47.17708189 -43.42966654 41.34280242 -37.61503315 35.51140881 C-34.10195773 31.9878458 -30.59079742 28.46241524 -27.08374023 24.93286133 C-23.68477341 21.5122382 -20.28100945 18.09645828 -16.87380028 14.68404579 C-15.57582828 13.38237047 -14.27962161 12.07893243 -12.98519325 10.77373314 C-11.18262014 8.95673757 -9.37398262 7.14600058 -7.5637207 5.33666992 C-7.02707291 4.79283157 -6.49042511 4.24899323 -5.93751526 3.68867493 C-2.22811019 0 -2.22811019 0 0 0 Z " fill="#76798F" transform="translate(484,142)"/>
<path d="M0 0 C18.81 0 37.62 0 57 0 C57 2.64 57 5.28 57 8 C38.19 8 19.38 8 0 8 C0 5.36 0 2.72 0 0 Z " fill="#F9FDFB" transform="translate(242,301)"/>
<path d="M0 0 C0.66 0 1.32 0 2 0 C2 54.78 2 109.56 2 166 C20.48 166 38.96 166 58 166 C58 166.66 58 167.32 58 168 C38.86 168 19.72 168 0 168 C0 112.56 0 57.12 0 0 Z " fill="#FECE6E" transform="translate(78,112)"/>
<path d="M0 0 C0.74886475 0.00523682 1.49772949 0.01047363 2.26928711 0.01586914 C3.07817383 0.0190918 3.88706055 0.02231445 4.72045898 0.02563477 C5.5705957 0.03401367 6.42073242 0.04239258 7.29663086 0.05102539 C8.15063477 0.05553711 9.00463867 0.06004883 9.88452148 0.06469727 C12.00108749 0.07652166 14.11761771 0.0944577 16.23413086 0.11352539 C16.56413086 1.76352539 16.89413086 3.41352539 17.23413086 5.11352539 C12.94413086 5.11352539 8.65413086 5.11352539 4.23413086 5.11352539 C4.23413086 7.75352539 4.23413086 10.39352539 4.23413086 13.11352539 C4.9444043 13.10192383 5.65467773 13.09032227 6.38647461 13.07836914 C7.30557617 13.0693457 8.22467773 13.06032227 9.17163086 13.05102539 C10.0881543 13.03942383 11.00467773 13.02782227 11.94897461 13.01586914 C14.23413086 13.11352539 14.23413086 13.11352539 15.23413086 14.11352539 C15.23413086 15.76352539 15.23413086 17.41352539 15.23413086 19.11352539 C11.60413086 19.11352539 7.97413086 19.11352539 4.23413086 19.11352539 C4.23413086 22.08352539 4.23413086 25.05352539 4.23413086 28.11352539 C8.52413086 28.11352539 12.81413086 28.11352539 17.23413086 28.11352539 C17.23413086 29.76352539 17.23413086 31.41352539 17.23413086 33.11352539 C15.71203496 34.63562129 14.35203004 34.2431206 12.23413086 34.24633789 C11.42975586 34.24762695 10.62538086 34.24891602 9.79663086 34.25024414 C8.95100586 34.24637695 8.10538086 34.24250977 7.23413086 34.23852539 C6.38850586 34.24239258 5.54288086 34.24625977 4.67163086 34.25024414 C3.86725586 34.24895508 3.06288086 34.24766602 2.23413086 34.24633789 C1.49163086 34.24520996 0.74913086 34.24408203 -0.01586914 34.24291992 C-1.76586914 34.11352539 -1.76586914 34.11352539 -2.76586914 33.11352539 C-2.86665034 30.74954071 -2.90560129 28.41541228 -2.89868164 26.05102539 C-2.89963837 25.34453857 -2.90059509 24.63805176 -2.90158081 23.91015625 C-2.90226247 22.41381746 -2.90040919 20.91747572 -2.89624023 19.42114258 C-2.89089171 17.12322382 -2.89618565 14.82550053 -2.90258789 12.52758789 C-2.90192711 11.07706662 -2.90064594 9.62654548 -2.89868164 8.17602539 C-2.90070587 7.48436279 -2.9027301 6.7927002 -2.90481567 6.08007812 C-2.87566008 0.18487238 -2.87566008 0.18487238 0 0 Z " fill="#FCFAF0" transform="translate(167.765869140625,180.886474609375)"/>
<path d="M0 0 C2.31 0 4.62 0 7 0 C8.61867236 4.75269755 10.19193043 9.51955562 11.6875 14.3125 C11.93886719 15.11300781 12.19023437 15.91351563 12.44921875 16.73828125 C13 19 13 19 13 23 C14.32 23 15.64 23 17 23 C16.938125 22.19304687 16.87625 21.38609375 16.8125 20.5546875 C17.05172385 16.01940193 18.41144959 12.34682315 20 8.125 C20.42925781 6.949375 20.42925781 6.949375 20.8671875 5.75 C21.5695612 3.83017854 22.28361072 1.91463564 23 0 C24.98 0 26.96 0 29 0 C28.42834741 4.76025914 27.4748238 9.05298348 25.93359375 13.58984375 C25.3293457 15.38325195 25.3293457 15.38325195 24.71289062 17.21289062 C24.08157227 19.05657227 24.08157227 19.05657227 23.4375 20.9375 C23.00790487 22.20619117 22.57886341 23.47506996 22.15039062 24.74414062 C21.10568206 27.83131312 20.05540218 30.91647035 19 34 C11.25 34.125 11.25 34.125 9 33 C9 31.02 9 29.04 9 27 C8.34 27 7.68 27 7 27 C6.82984375 26.27296875 6.6596875 25.5459375 6.484375 24.796875 C4.90089447 18.22711534 3.02817132 11.86596632 0.76953125 5.49609375 C0 3 0 3 0 0 Z " fill="#FBFAF4" transform="translate(225,181)"/>
<path d="M0 0 C1.18613892 0.00785522 1.18613892 0.00785522 2.39624023 0.01586914 C3.67724609 0.02070313 3.67724609 0.02070313 4.98413086 0.02563477 C5.88196289 0.03401367 6.77979492 0.04239258 7.70483398 0.05102539 C8.6065332 0.05553711 9.50823242 0.06004883 10.43725586 0.06469727 C12.67234712 0.07652315 14.90730835 0.09300319 17.14233398 0.11352539 C17.14233398 1.76352539 17.14233398 3.41352539 17.14233398 5.11352539 C12.85233398 5.11352539 8.56233398 5.11352539 4.14233398 5.11352539 C4.14233398 8.08352539 4.14233398 11.05352539 4.14233398 14.11352539 C7.44233398 14.11352539 10.74233398 14.11352539 14.14233398 14.11352539 C14.14233398 15.76352539 14.14233398 17.41352539 14.14233398 19.11352539 C10.84233398 19.11352539 7.54233398 19.11352539 4.14233398 19.11352539 C4.14233398 22.08352539 4.14233398 25.05352539 4.14233398 28.11352539 C8.43233398 28.11352539 12.72233398 28.11352539 17.14233398 28.11352539 C17.47233398 29.76352539 17.80233398 31.41352539 18.14233398 33.11352539 C16.58626648 34.6695929 15.08276027 34.24323308 12.92358398 34.24633789 C11.6493457 34.24827148 11.6493457 34.24827148 10.34936523 34.25024414 C9.00938477 34.24444336 9.00938477 34.24444336 7.64233398 34.23852539 C6.74901367 34.24239258 5.85569336 34.24625977 4.93530273 34.25024414 C4.08581055 34.24895508 3.23631836 34.24766602 2.36108398 34.24633789 C1.57668945 34.24520996 0.79229492 34.24408203 -0.01586914 34.24291992 C-1.85766602 34.11352539 -1.85766602 34.11352539 -2.85766602 33.11352539 C-2.95844722 30.74954071 -2.99739817 28.41541228 -2.99047852 26.05102539 C-2.99143524 25.34453857 -2.99239197 24.63805176 -2.99337769 23.91015625 C-2.99405934 22.41381746 -2.99220606 20.91747572 -2.98803711 19.42114258 C-2.98268859 17.12322382 -2.98798252 14.82550053 -2.99438477 12.52758789 C-2.99372398 11.07706662 -2.99244281 9.62654548 -2.99047852 8.17602539 C-2.99250275 7.48436279 -2.99452698 6.7927002 -2.99661255 6.08007812 C-2.96743951 0.18134569 -2.96743951 0.18134569 0 0 Z " fill="#FBFAF0" transform="translate(261.857666015625,180.886474609375)"/>
<path d="M0 0 C2.31 0 4.62 0 7 0 C7 0.99 7 1.98 7 3 C7.66 3 8.32 3 9 3 C9 4.32 9 5.64 9 7 C9.66 7 10.32 7 11 7 C11.33 8.98 11.66 10.96 12 13 C12.66 13 13.32 13 14 13 C14.99 9.7 15.98 6.4 17 3 C17.66 3 18.32 3 19 3 C19 2.01 19 1.02 19 0 C21.31 0 23.62 0 26 0 C25.40632923 4.42779452 23.68213828 7.56957047 21.5 11.4375 C18.05683666 17.84116436 17.18389925 23.02191228 17.0703125 30.33203125 C17 33 17 33 16 34 C13 34.125 13 34.125 10 34 C7.6542438 31.6542438 8.60394805 25.78786319 8.4765625 22.61328125 C7.97386869 18.80187329 6.76550201 16.37522443 5 13 C5 11.68 5 10.36 5 9 C4.34 9 3.68 9 3 9 C3 7.68 3 6.36 3 5 C2.34 5 1.68 5 1 5 C0.67 3.35 0.34 1.7 0 0 Z " fill="#FBFAF3" transform="translate(311,181)"/>
<path d="M0 0 C12.21 0 24.42 0 37 0 C30 11 30 11 26.45141602 12.2487793 C25.23123779 12.19117432 24.01105957 12.13356934 22.75390625 12.07421875 C22.09792953 12.05865433 21.44195282 12.0430899 20.76609802 12.02705383 C18.69233691 11.96596121 16.63221756 11.82831519 14.5625 11.6875 C13.14927925 11.6322543 11.73585078 11.58207594 10.32226562 11.53710938 C6.87715798 11.41654286 3.43991193 11.22720896 0 11 C0 7.37 0 3.74 0 0 Z " fill="#ED7950" transform="translate(87,290)"/>
<path d="M0 0 C2.64 0 5.28 0 8 0 C8 0.66 8 1.32 8 2 C9.32 2 10.64 2 12 2 C14.14336161 5.4766338 14.21277626 8.21229195 14.125 12.25 C14.10695312 13.32765625 14.08890625 14.4053125 14.0703125 15.515625 C14.04710937 16.33546875 14.02390625 17.1553125 14 18 C13.34 18 12.68 18 12 18 C11.67 19.32 11.34 20.64 11 22 C10.01 22 9.02 22 8 22 C8 22.66 8 23.32 8 24 C5.36 24 2.72 24 0 24 C0 16.08 0 8.16 0 0 Z " fill="#FED081" transform="translate(138,186)"/>
<path d="M0 0 C2.31 0 4.62 0 7 0 C7 9.24 7 18.48 7 28 C10.63 28 14.26 28 18 28 C18 29.65 18 31.3 18 33 C12.06 33 6.12 33 0 33 C0 22.11 0 11.22 0 0 Z " fill="#FCFBF5" transform="translate(191,181)"/>
<path d="M0 0 C1.98 0 3.96 0 6 0 C6 11.55 6 23.1 6 35 C4.02 35 2.04 35 0 35 C0 23.45 0 11.9 0 0 Z " fill="#FBFCF8" transform="translate(214,180)"/>
<path d="M0 0 C-3.89548093 4.65834119 -7.93698906 9.08608774 -12.23828125 13.37109375 C-12.80451706 13.93828629 -13.37075287 14.50547882 -13.95414734 15.08985901 C-15.13690579 16.27329173 -16.32090288 17.45548773 -17.50610352 18.63647461 C-19.32882089 20.45377236 -21.14605809 22.27643025 -22.96289062 24.09960938 C-24.11686647 25.25292547 -25.2711519 26.40593191 -26.42578125 27.55859375 C-26.9705159 28.10535263 -27.51525055 28.65211151 -28.07649231 29.21543884 C-31.88501099 33 -31.88501099 33 -33 33 C-33.49238581 28.5091445 -33.39528297 26.55261585 -30.72436523 22.81860352 C-29.68831655 21.73664512 -28.63165938 20.67416268 -27.55859375 19.62890625 C-26.9980983 19.06171371 -26.43760284 18.49452118 -25.86012268 17.91014099 C-24.67404753 16.71931648 -23.47914208 15.53722999 -22.27612305 14.36352539 C-20.44269674 12.56759048 -18.64962766 10.73735851 -16.85742188 8.90039062 C-15.69755018 7.74514484 -14.53550876 6.59207252 -13.37109375 5.44140625 C-12.83850449 4.89464737 -12.30591522 4.34788849 -11.75718689 3.78456116 C-7.8712628 0.06352479 -5.30411094 -0.58155266 0 0 Z " fill="#757B92" transform="translate(447,132)"/>
<path d="M0 0 C18.81 0 37.62 0 57 0 C57 2.64 57 5.28 57 8 C56.01 7.67 55.02 7.34 54 7 C54 5.68 54 4.36 54 3 C38.16 3 22.32 3 6 3 C6 2.67 6 2.34 6 2 C3.03 1.505 3.03 1.505 0 1 C0 0.67 0 0.34 0 0 Z " fill="#F9EEE0" transform="translate(242,301)"/>
<path d="M0 0 C0.99 0.495 0.99 0.495 2 1 C2 4.63 2 8.26 2 12 C17.345 11.505 17.345 11.505 33 11 C33.495 13.475 33.495 13.475 34 16 C23.11 16 12.22 16 1 16 C0.67 10.72 0.34 5.44 0 0 Z " fill="#E5815B" transform="translate(508,311)"/>
<path d="M0 0 C4.14169104 4.43752611 5.98881245 9.38050538 8 15 C8.36351562 15.9178125 8.72703125 16.835625 9.1015625 17.78125 C10.22141721 21.79325123 10.2934055 25.42089149 10.25 29.5625 C10.25773438 30.30435547 10.26546875 31.04621094 10.2734375 31.81054688 C10.27085937 32.53435547 10.26828125 33.25816406 10.265625 34.00390625 C10.26336914 34.65174072 10.26111328 35.2995752 10.25878906 35.96704102 C10 38 10 38 8 43 C4.04 43 0.08 43 -4 43 C-3.34 42.01 -2.68 41.02 -2 40 C1.96 40.495 1.96 40.495 6 41 C6.08857863 37.7085089 6.1409104 34.41733195 6.1875 31.125 C6.21263672 30.2071875 6.23777344 29.289375 6.26367188 28.34375 C6.34738258 20.41913696 4.86095398 13.72190796 1.3125 6.625 C0 4 0 4 0 0 Z " fill="#212022" transform="translate(192,295)"/>
<path d="M0 0 C1.87187172 -0.01650795 3.74368175 -0.0437294 5.61523438 -0.08203125 C8.32308443 -0.13713703 11.0294557 -0.15872893 13.73779297 -0.17333984 C14.97887314 -0.2073439 14.97887314 -0.2073439 16.24502563 -0.24203491 C22.48810385 -0.21961911 26.25797926 1.62661637 31.19873047 5.35009766 C32.18873047 6.07197266 33.17873047 6.79384766 34.19873047 7.53759766 C34.85873047 8.13572266 35.51873047 8.73384766 36.19873047 9.35009766 C36.19873047 10.01009766 36.19873047 10.67009766 36.19873047 11.35009766 C34.03780056 10.37438446 32.32994349 9.47123868 30.57983398 7.85546875 C22.69485625 0.8732377 11.97197097 2.7087008 2.13623047 2.97509766 C0.20202712 3.00523099 -1.73222136 3.03260085 -3.66650391 3.05712891 C-8.3792167 3.12286719 -13.08974159 3.22620204 -17.80126953 3.35009766 C-18.13126953 2.69009766 -18.46126953 2.03009766 -18.80126953 1.35009766 C-13.70408363 -1.1984953 -5.67266987 0.0366362 0 0 Z M-18.80126953 2.35009766 C-18.80126953 3.34009766 -18.80126953 4.33009766 -18.80126953 5.35009766 C-20.45126953 6.01009766 -22.10126953 6.67009766 -23.80126953 7.35009766 C-23.80126953 6.36009766 -23.80126953 5.37009766 -23.80126953 4.35009766 C-20.80126953 2.35009766 -20.80126953 2.35009766 -18.80126953 2.35009766 Z " fill="#12100E" transform="translate(152.80126953125,280.64990234375)"/>
<path d="M0 0 C26.07 0.33 52.14 0.66 79 1 C79 1.33 79 1.66 79 2 C78.42831589 2.01030746 77.85663177 2.02061493 77.2676239 2.03123474 C71.21455282 2.14102071 65.16158076 2.25543552 59.10864258 2.37231445 C56.86191925 2.41512293 54.61517451 2.45682473 52.3684082 2.49731445 C38.55963709 2.74703771 24.78606125 3.15680001 11 4 C11 3.34 11 2.68 11 2 C7.37 1.67 3.74 1.34 0 1 C0 0.67 0 0.34 0 0 Z " fill="#A44F2A" transform="translate(466,272)"/>
<path d="M0 0 C1.32 0 2.64 0 4 0 C4 8.58 4 17.16 4 26 C3.67 25.34 3.34 24.68 3 24 C2.34 24 1.68 24 1 24 C0.67 24.66 0.34 25.32 0 26 C0 17.42 0 8.84 0 0 Z " fill="#F27847" transform="translate(548,244)"/>
<path d="M0 0 C5.75 -0.125 5.75 -0.125 8 1 C8 3.97 8 6.94 8 10 C5.36 10 2.72 10 0 10 C0 6.7 0 3.4 0 0 Z " fill="#FCD286" transform="translate(292,186)"/>
<path d="M0 0 C2.64 0 5.28 0 8 0 C8 1.32 8 2.64 8 4 C7.34 4 6.68 4 6 4 C6 3.34 6 2.68 6 2 C4.68 2 3.36 2 2 2 C2 8.6 2 15.2 2 22 C3.98 22 5.96 22 8 22 C8 22.66 8 23.32 8 24 C5.36 24 2.72 24 0 24 C0 16.08 0 8.16 0 0 Z " fill="#F8D89A" transform="translate(138,186)"/>
<path d="M0 0 C2.64 0 5.28 0 8 0 C8 2.97 8 5.94 8 9 C5.36 9 2.72 9 0 9 C0 6.03 0 3.06 0 0 Z " fill="#110A09" transform="translate(541,287)"/>
<path d="M0 0 C0.33 0 0.66 0 1 0 C1 5.94 1 11.88 1 18 C3.64 18 6.28 18 9 18 C9 15.36 9 12.72 9 10 C9.33 10 9.66 10 10 10 C10 13.3 10 16.6 10 20 C6.37 20 2.74 20 -1 20 C-1.02703562 17.41659616 -1.04685611 14.83347692 -1.0625 12.25 C-1.07087891 11.52039063 -1.07925781 10.79078125 -1.08789062 10.0390625 C-1.10391684 6.51329442 -0.95292713 3.38965084 0 0 Z " fill="#1C1111" transform="translate(413,306)"/>
<path d="M0 0 C0.998568 2.60838067 1.11549666 3.70711605 0.07421875 6.34765625 C-0.38339844 7.24355469 -0.84101562 8.13945312 -1.3125 9.0625 C-5.02317426 17.35997994 -5.37095566 26.02438225 -6 35 C-6.33 35 -6.66 35 -7 35 C-7.0605377 30.33187043 -7.05365761 25.66821228 -7 21 C-6.99419922 19.62908203 -6.99419922 19.62908203 -6.98828125 18.23046875 C-6.65636029 11.14567315 -3.69920565 5.9504042 0 0 Z " fill="#191616" transform="translate(119,296)"/>
<path d="M0 0 C4.29 0 8.58 0 13 0 C12.67 0.66 12.34 1.32 12 2 C8.7 2 5.4 2 2 2 C2 6.29 2 10.58 2 15 C1.34 15 0.68 15 0 15 C0 10.05 0 5.1 0 0 Z " fill="#F86F3F" transform="translate(396,92)"/>
<path d="M0 0 C1.32 0 2.64 0 4 0 C4 2.97 4 5.94 4 9 C2.68 9 1.36 9 0 9 C0 6.03 0 3.06 0 0 Z " fill="#3A394B" transform="translate(237,301)"/>
<path d="M0 0 C7 8.20689655 7 8.20689655 7 13 C4 12 4 12 2.83203125 10.29296875 C2.49558594 9.59816406 2.15914062 8.90335937 1.8125 8.1875 C1.46832031 7.50042969 1.12414062 6.81335938 0.76953125 6.10546875 C0 4 0 4 0 0 Z " fill="#261917" transform="translate(192,295)"/>
<path d="M0 0 C0 3 0 3 -2.375 5.5 C-3.24125 6.325 -4.1075 7.15 -5 8 C-5.99 9.485 -5.99 9.485 -7 11 C-7.66 11 -8.32 11 -9 11 C-7.59928507 5.70841026 -4.14512755 3.22521956 0 0 Z " fill="#39384C" transform="translate(135,293)"/>
<path d="M0 0 C1.875 0.625 1.875 0.625 4 2 C5.25 5.125 5.25 5.125 6 8 C4.68 8.33 3.36 8.66 2 9 C2 7.35 2 5.7 2 4 C1.34 4 0.68 4 0 4 C0 2.68 0 1.36 0 0 Z " fill="#EC885B" transform="translate(538,226)"/>
<path d="M0 0 C0.33 0.66 0.66 1.32 1 2 C1.66 2 2.32 2 3 2 C3 4.31 3 6.62 3 9 C2.01 9.495 2.01 9.495 1 10 C1 8.02 1 6.04 1 4 C0.34 4 -0.32 4 -1 4 C-0.67 2.68 -0.34 1.36 0 0 Z " fill="#FAD28F" transform="translate(253,186)"/>
<path d="M0 0 C0.99 0 1.98 0 3 0 C3 0.66 3 1.32 3 2 C3.99 2.33 4.98 2.66 6 3 C5.67 4.32 5.34 5.64 5 7 C3.29115995 5.37660195 1.62553283 3.70680947 0 2 C0 1.34 0 0.68 0 0 Z " fill="#DD7450" transform="translate(189,290)"/>
<path d="M0 0 C3.53600465 1.91135386 5.78972846 3.62642766 8 7 C4.21388773 6.45912682 2.44599233 4.88277668 0 2 C0 1.34 0 0.68 0 0 Z " fill="#210906" transform="translate(488,281)"/>
<path d="M0 0 C0.99 0 1.98 0 3 0 C3 0.66 3 1.32 3 2 C3.66 2 4.32 2 5 2 C5 2.66 5 3.32 5 4 C1.7 3.67 -1.6 3.34 -5 3 C-3.68 2.34 -2.36 1.68 -1 1 C-0.67 0.67 -0.34 0.34 0 0 Z " fill="#EF825F" transform="translate(449,108)"/>
<path d="M0 0 C0.66 0.66 1.32 1.32 2 2 C1.360625 2.268125 0.72125 2.53625 0.0625 2.8125 C-2.33131686 3.88667752 -2.33131686 3.88667752 -3 7 C-3.99 6.67 -4.98 6.34 -6 6 C-4.02 4.02 -2.04 2.04 0 0 Z " fill="#190F0D" transform="translate(126,288)"/>
</svg>
